<svg xmlns="http://www.w3.org/2000/svg" width="460" height="519" viewBox="175.5 57.5 460 519"><g fill="#019875"><path d="M619.571 430.022c-.17-.004-.339-.004-.508 0l-430 39.922c-5.5.51-9.544 5.384-9.032 10.884a10 10 0 0 0 1.024 3.569l40 79.884a10.006 10.006 0 0 0 8.945 5.586l310 .198a9.997 9.997 0 0 0 8.358-4.452l79.961-120c3.045-4.605 1.779-10.813-2.828-13.855a9.997 9.997 0 0 0-5.922-1.651l.002-.085zm-19.533 21.875l-65.352 98.086-298.516-.198-30.703-61.328 394.569-36.646.002.086z"/><path d="M309.297 70.022c-5.511.395-9.656 5.18-9.263 10.688.023.332.063.664.121.992l59.96 379.727c.567 5.492 5.481 9.488 10.977 8.922 5.495-.565 9.487-5.481 8.921-10.975a10.13 10.13 0 0 0-.169-1.072L319.883 78.577a9.999 9.999 0 0 0-10.586-8.553v-.002z"/><path d="M319.452 110.022a9.997 9.997 0 0 0-8.75 6.25l-119.999 300c-2.065 5.12.413 10.949 5.535 13.017 1.965.79 4.13.938 6.184.422l160-40-4.846-19.414-141.015 35.233 107.344-268.28 235.47 217.383-191.681 45.625 4.608 19.453 210.001-50c5.375-1.27 8.702-6.658 7.432-12.033a10 10 0 0 0-2.938-5.04l-260-240a9.99 9.99 0 0 0-7.345-2.616z"/></g><text transform="translate(80.006 940.006)" font-family="'Arial-BoldMT'" font-size="100">Created by anbileru adaleru</text><text transform="translate(80.006 1040.006)" font-family="'Arial-BoldMT'" font-size="100">from the Noun Project</text></svg>