<svg xmlns="http://www.w3.org/2000/svg" width="343" height="325.5" viewBox="0 0 343 325.5"><path fill="#019875" d="M268.24 324.402c6.99-.867 11.959-7.281 11.1-14.324a13.148 13.148 0 0 0-.081-.563l-16.276-99.667 71.24-71.026c5.003-4.995 5.041-13.132.084-18.173a12.72 12.72 0 0 0-7.096-3.653l-99.159-15.265-44.947-90.33c-3.164-6.341-10.83-8.896-17.122-5.708a12.796 12.796 0 0 0-5.664 5.708l-44.947 90.33-99.158 15.265c-6.959 1.093-11.723 7.664-10.637 14.676a12.88 12.88 0 0 0 3.626 7.15l71.237 71.026-16.275 99.668c-1.171 6.998 3.511 13.627 10.454 14.807 2.763.469 5.6.01 8.075-1.31l89.019-46.426 89.019 46.427a12.665 12.665 0 0 0 7.508 1.388zm-18.279-35.957l-72.366-37.721a12.66 12.66 0 0 0-11.771 0l-72.365 37.72 13.271-80.992c.669-4.114-.685-8.3-3.63-11.23l-57.969-57.78 80.504-12.236a12.762 12.762 0 0 0 9.516-6.94l36.56-73.424 36.559 73.425a12.76 12.76 0 0 0 9.516 6.939l80.505 12.237-57.969 57.78a12.912 12.912 0 0 0-3.63 11.229l13.269 80.993z"/><text transform="translate(79.998 736.002)" font-family="'Arial-BoldMT'" font-size="32">Created by Eagle Eye</text><text transform="translate(79.998 768.002)" font-family="'Arial-BoldMT'" font-size="32">from the Noun Project</text></svg>