<?xml version="1.0" encoding="utf-8"?>
<!-- Generator: Adobe Illustrator 16.0.0, SVG Export Plug-In . SVG Version: 6.00 Build 0)  -->
<!DOCTYPE svg PUBLIC "-//W3C//DTD SVG 1.1//EN" "http://www.w3.org/Graphics/SVG/1.1/DTD/svg11.dtd">
<svg version="1.1" id="Layer_1" xmlns="http://www.w3.org/2000/svg" xmlns:xlink="http://www.w3.org/1999/xlink" x="0px" y="0px"
	 width="64px" height="86.86px" viewBox="369 -10.429 64 86.86" enable-background="new 369 -10.429 64 86.86" xml:space="preserve"
	>
<g>
	<path fill="#CB1630" d="M423.628-1.058c-6.044-6.043-14.078-9.372-22.626-9.372s-16.586,3.328-22.628,9.372
		C372.331,4.987,369,13.023,369,21.571c0,5.778,1.336,10.621,4.203,15.239c2.534,4.08,5.928,7.448,9.523,11.018
		c6.629,6.579,14.145,14.038,17.348,27.862c0.1,0.437,0.485,0.74,0.928,0.74s0.827-0.304,0.927-0.74
		c3.202-13.826,10.719-21.283,17.348-27.861c3.595-3.567,6.989-6.938,9.521-11.018c2.868-4.619,4.202-9.462,4.202-15.24
		C433,13.023,429.673,4.987,423.628-1.058z M401.002,46.504c-13.749,0-24.933-11.184-24.933-24.934s11.184-24.933,24.933-24.933
		c13.746,0,24.932,11.185,24.932,24.933C425.934,35.319,414.748,46.504,401.002,46.504z"/>
	<g>
		<g>
			<polygon fill="#01654E" points="401.021,27.321 405.708,16.375 400.932,12.758 396.175,16.385 			"/>
			<path fill="#2574A9" stroke="#1F3A93" stroke-miterlimit="10" d="M409.738,12.735"/>
			<polygon fill="#019875" points="391.985,12.588 400.809,3.868 400.395,12.23 395.84,15.867 391.99,12.904 			"/>
			<polygon fill="#019875" points="409.921,12.483 400.996,3.867 401.508,12.223 406.104,15.807 409.92,12.8 			"/>
			<polygon fill="#019875" points="401.494,27.318 409.412,14.011 406.644,16.087 			"/>
			<polygon fill="#019875" points="400.535,27.324 392.462,14.11 395.255,16.153 			"/>
		</g>
		<g>
			<polygon fill="#01654E" points="400.223,27.897 392.619,18.735 387.221,21.335 388.281,27.223 			"/>
			<path fill="#2574A9" stroke="#1F3A93" stroke-miterlimit="10" d="M391.217,13.487"/>
			<polygon fill="#019875" points="382.991,29.22 379.254,17.391 386.507,21.573 387.667,27.285 383.274,29.361 			"/>
			<polygon fill="#019875" points="391.076,13.211 379.338,17.224 387.008,20.58 392.294,18.123 391.357,13.356 			"/>
			<polygon fill="#019875" points="400.437,27.474 392.204,14.36 392.789,17.771 			"/>
			<polygon fill="#019875" points="400.004,28.331 384.563,29.49 387.655,27.936 			"/>
		</g>
		<g>
			<polygon fill="#01654E" points="401.984,27.933 413.855,27.002 414.842,21.092 409.42,18.564 			"/>
			<path fill="#2574A9" stroke="#1F3A93" stroke-miterlimit="10" d="M418.951,28.882"/>
			<polygon fill="#019875" points="410.838,13.09 422.657,16.856 415.06,20.372 409.724,18.027 410.56,13.241 			"/>
			<polygon fill="#019875" points="419.259,28.926 422.745,17.021 415.582,21.354 414.542,27.09 418.978,29.072 			"/>
			<polygon fill="#019875" points="402.207,28.351 417.669,29.185 414.545,27.697 			"/>
			<polygon fill="#019875" points="401.757,27.504 409.712,14.219 409.199,17.641 			"/>
		</g>
	</g>
</g>
</svg>
